<svg width="512" height="512" viewBox="0 0 512 512" fill="none" xmlns="http://www.w3.org/2000/svg">
<path d="M60 0H429C428.419 12.204 427.838 24.351 426.871 36.522L426.656 39.244L426.434 42.06L425.965 48.084C425.547 53.466 425.124 58.847 424.701 64.228C424.256 69.889 423.815 75.551 423.373 81.212C422.632 90.7 421.889 100.188 421.144 109.675C420.284 120.628 419.427 131.58 418.572 142.533C417.658 154.239 416.743 165.944 415.826 177.65L415.038 187.725C414.626 193.001 414.212 198.278 413.797 203.554C413.646 205.485 413.494 207.416 413.344 209.348C413.138 211.991 412.929 214.634 412.721 217.276L412.543 219.571C412.134 224.728 411.591 229.861 411 235C407.367 233.304 405.055 231.262 402.25 228.375L399.828 225.898L398 224C393.994 225.612 391.271 228.423 388.273 231.426L386.614 233.073C385.453 234.228 384.295 235.385 383.139 236.545C381.408 238.275 379.671 239.997 377.926 241.713C368.429 251.153 359.183 261.064 353.562 273.375L352.619 275.332C350.626 279.504 348.799 283.742 347 288C343.968 287.017 340.982 285.993 338.02 284.816C320.822 278.092 303.082 277.522 284.812 277.312C282.779 277.279 280.746 277.245 278.713 277.209C273.809 277.125 268.905 277.058 264 277C264.07 283.098 264.158 289.195 264.262 295.292C264.295 297.359 264.323 299.425 264.346 301.491C264.541 318.546 265.71 334.219 272.012 350.242C273 353 273 353 273 356H88C86.81 344.692 85.645 333.429 84.772 322.1L84.445 317.939C84.151 314.193 83.86 310.447 83.57 306.701C83.254 302.636 82.935 298.571 82.617 294.507C81.997 286.575 81.377 278.642 80.761 270.71C78.7506 244.978 76.7439 219.246 74.741 193.513C73.4957 177.519 72.2484 161.525 70.999 145.531C69.636 128.085 68.274 110.638 66.914 93.191L66.696 90.399C66.0486 82.1033 65.4013 73.8077 64.754 65.512C64.142 57.672 63.53 49.83 62.921 41.989L61.985 29.987L61.13 19.01C60.978 17.0543 60.825 15.0986 60.671 13.143L60.401 9.64L60.164 6.61C60.026 4.41 60 2.204 60 0ZM11 475H479V512H11V475Z" fill="#202023"/>
<path d="M279.769 382.547C288.083 382.424 292.513 382.349 295.623 383C298.927 383.691 300.789 385.209 303.95 387.735L304.018 387.789L304.078 387.849C305.386 389.165 306.679 390.495 307.961 391.836C309.968 393.162 312.045 394.308 314.218 395.424L315.176 395.911L315.191 395.919L317.111 396.917H317.11C322.092 399.471 327.235 401.699 332.506 403.588L333.421 403.916L333.495 404.885L333.758 408.296C334.96 422.034 338.112 432.87 344.342 445.329L345.427 447.5H93.6494L93.5078 446.157C91.2095 424.327 91.2062 424.297 90.6514 416.062L90.459 413.319C90.2629 410.518 90.0708 407.717 89.8789 404.918L89.4727 399.107L88.5039 385.102L88.3945 383.511L89.9893 383.5C116.808 383.313 143.626 383.172 170.445 383.086C182.896 383.044 195.346 382.988 207.795 382.896L215.938 382.842C224.08 382.793 232.223 382.76 240.366 382.747H240.367C246.109 382.74 251.85 382.71 257.592 382.655V382.654C263.01 382.6 268.426 382.583 273.843 382.595C275.818 382.593 277.793 382.578 279.768 382.547H279.769Z" fill="#FFC13C" stroke="black" stroke-width="3"/>
<path d="M417.688 379.625C425.256 385.054 430.927 392.866 433 402C434.368 414.455 432.415 424.865 424.438 434.875C418.34 441.262 409.755 445.553 400.934 446.238C389.605 446.479 380.806 444.428 372.004 437.043C364.729 429.626 360.972 419.794 360.625 409.5C360.977 399.488 364.316 391.488 371 384C384.287 372.139 402.397 370.327 417.688 379.625Z" fill="#202023"/>
<path d="M292.948 304.501C310.447 303.888 324.391 306.955 339.694 315.67L342.016 316.835L342.266 316.961L342.455 317.168C344.079 318.957 344.895 320.958 345.386 322.976C345.858 324.912 346.064 327.058 346.354 328.939C347.889 337.683 350.394 345.593 353.711 353.781L354.385 355.424L354.388 355.433L354.392 355.441C355.06 357.108 355.728 358.775 356.393 360.444L356.776 361.404L356.016 362.104L354.696 363.318C350.122 367.688 346.642 372.35 343.275 377.789L342.781 378.589L341.845 378.492C326.592 376.906 315.624 367.551 306.021 356.944L305.992 356.912L305.964 356.878C295.98 344.461 291.24 328.805 291.437 313.106L291.451 311.029V311.028C291.463 309.345 291.482 307.664 291.501 305.983L291.516 304.551L292.948 304.501ZM493.393 304.438H493.392L495.614 304.451H495.615L501.016 304.5L502.44 304.515L502.499 305.938C503.305 325.486 500.271 342.839 486.691 358.362L486.668 358.39L486.643 358.415C485.141 359.976 483.619 361.518 482.079 363.041L480.22 364.968L480.202 364.987L480.182 365.006C473.086 371.844 463.126 377.309 453.176 378.489L452.338 378.589L451.819 377.924L450.245 375.912L450.241 375.907C445.861 370.255 445.901 370.301 440.875 365.246L440.843 365.215L440.815 365.183L438.878 362.994L438.447 362.509L438.506 361.863C438.935 357.191 440.907 352.954 442.482 349.007C445.733 340.61 448.182 332.17 448.726 323.264L448.733 323.139L448.761 323.017C449.129 321.43 449.368 320.332 449.901 319.396C450.439 318.45 451.249 317.713 452.389 316.646L452.513 316.53L452.66 316.445C465.379 309.049 478.311 304.26 493.393 304.438ZM396.619 261.634C402.709 264.394 407.579 269.3 411.445 274.866C415.073 280.09 417.868 285.97 419.988 291.391L420.403 292.468L420.407 292.479C425.976 307.51 425.389 325.807 419.389 340.565L419.373 340.607L419.353 340.648C418.159 343.14 416.786 345.542 415.246 347.836L414.72 348.618L413.788 348.485L410.311 347.988C400.368 346.889 390.11 347.071 380.212 348.485L379.212 348.628L378.705 347.756C369.573 332.102 368.454 314.076 372.636 296.861L372.643 296.834L372.65 296.808C376.71 282.405 385.039 272.416 394.91 261.97L395.644 261.192L396.619 261.634Z" fill="#FFC13C" stroke="black" stroke-width="3"/>
</svg>
